<svg xmlns="http://www.w3.org/2000/svg" style="--flower-body:#FFDB58;--flower-body-center:#DBC80A;--flower-body-border:#D9C504;--flower-body-inside:#4C3815;--flower-stigma:#F06D00;--flower-stigma-inside:#FBC004;--flower-filament:#E5ECE5;--flower-filament-size:0.8;--flower-filament-size-border:1.0;--petal-edge:#f7f7f7;--petal-center:#ffffff;--petal-shade:#fafafa;--petal-highlight:#ffffff;--petal-border:#A5A5A5;--petal-vein:#D8D8D8;--center-hole:#4A2B21;--center-border:#F5C54C;--inner-border:#CDCF31;--outer-hole:#969624" viewBox="0 0 120 120"><defs><g id="a"><path fill="var(--petal-center)" stroke="var(--petal-border)" stroke-width=".25" d="M7.5 2.5c2 .5 8.5 2 10.5 5q2.25 3.75 3 7.5 1.5 3.75 1.5 9c.5 2-.5 4.5 0 7q.75 3.75-1.5 7.5c.5 2-.5 4-1.5 5.5-1.5 1.5-3.5 3-5.5 4-1 .5-1.5 0-2.5.5-1.5-.5-2.5-1-3.5-2s-2-2-3-3.5c-1-2-1.5-4-2-6s-1-3.5-1-5.5c-.5-2.5 0-5-.5-7.5q0-3.75 1.5-7.5c.5-2.5 1-5 2.5-7 3-3 4.5-5.5 7-7Z"/><path fill="var(--petal-shade)" d="M12.5 5c3.5 7.5 5 17.5 5 32.5-2 4-3.5 6-5 7.5-1.5-1.5-3-3.5-5-7.5 0-15 1.5-25 5-32.5"/><path fill="none" stroke="var(--petal-vein)" stroke-width=".25" d="M12.5 2.5v45"/><path fill="none" stroke="var(--petal-vein)" stroke-width=".15" d="M12.5 12.5c3.5 5 6.5 12.5 7.5 20M12.5 12.5C9 17.5 6 25 5 32.5"/></g><g id="b"><path fill="none" stroke="var(--petal-border)" stroke-width="var(--flower-filament-size-border)" d="M0 0q2-8 0-16"/><path fill="none" stroke="var(--flower-filament)" stroke-width="var(--flower-filament-size)" d="M0 0q2-8 0-16"/><ellipse cy="-16" fill="var(--flower-stigma)" rx="1.5" ry="2.5"/><ellipse cy="-15.1" fill="var(--flower-stigma-inside)" opacity=".7" rx=".9" ry="1.6"/></g><g id="c"><path fill="none" stroke="var(--petal-border)" stroke-width="calc(var(--flower-filament-size-border) * 0.7)" d="M0 0q-1.5-5 0-10"/><path fill="none" stroke="var(--flower-filament)" stroke-width="calc(var(--flower-filament-size) * 0.7)" d="M0 0q-1.5-5 0-10"/><ellipse cy="-10" fill="var(--flower-stigma)" rx="1" ry="1.8"/><ellipse cy="-9.4" fill="var(--flower-stigma-inside)" opacity=".7" rx=".6" ry="1.1"/></g><radialGradient id="d" cx="50%" cy="50%" r="50%" fx="45%" fy="45%"><stop offset="0%" style="stop-color:black"/><stop offset="70%" style="stop-color:var(--center-hole)"/><stop offset="100%" style="stop-color:var(--outer-hole)"/></radialGradient></defs><use x="48" y="60" href="#a" transform="rotate(-38 60 60)"/><use x="48" y="60" href="#a" transform="rotate(38 60 60)"/><use x="48" y="60" href="#a" transform="rotate(111 60 60)"/><use x="48" y="60" href="#a" transform="rotate(180 60 60)"/><use x="48" y="60" href="#a" transform="rotate(250 60 60)"/><circle cx="60" cy="60" r="6" fill="var(--center-border)" stroke="#CDCF31" stroke-width=".7"/><use x="60" y="60" href="#b" transform="rotate(45 60 60)"/><use x="60" y="60" href="#b" transform="rotate(90 60 60)"/><use x="60" y="60" href="#b" transform="rotate(135 60 60)"/><use x="60" y="60" href="#b" transform="rotate(180 60 60)"/><use x="60" y="60" href="#b" transform="rotate(225 60 60)"/><use x="60" y="60" href="#b" transform="rotate(270 60 60)"/><use x="60" y="60" href="#b" transform="rotate(315 60 60)"/><use x="60" y="60" href="#c" transform="rotate(40 60 60)"/><use x="60" y="60" href="#c" transform="rotate(80 60 60)"/><use x="60" y="60" href="#c" transform="rotate(120 60 60)"/><use x="60" y="60" href="#c" transform="rotate(160 60 60)"/><use x="60" y="60" href="#c" transform="rotate(200 60 60)"/><use x="60" y="60" href="#c" transform="rotate(240 60 60)"/><use x="60" y="60" href="#c" transform="rotate(280 60 60)"/><use x="60" y="60" href="#c" transform="rotate(320 60 60)"/><circle cx="60" cy="60" r="5" fill="var(--inner-border)"/><circle cx="60" cy="60" r="3.5" fill="url(#d)"/><use x="60" y="60" href="#b"/></svg>