<svg xmlns="http://www.w3.org/2000/svg" viewBox="0 0 50 50">

    <defs>
        <style type="text/css">
            :root {
                --flower-body: #ffb7c9;
            }
        </style>
    </defs>


    <!-- Background -->
    <rect width="50" height="50" fill="#f8f4e8"/>
    <!-- Daisy -->
    <g transform="translate(25, 25)">
        <circle cx="0" cy="0" r="10" fill="#ffed7a"/>
        <circle cx="0" cy="0" r="4" fill="#ffcc00"/>
        <path d="M 0,-13 Q 3,-10 0,-7 Q -3,-10 0,-13" fill="#7fbc6b" transform="rotate(0)"/>
        <path d="M 0,-13 Q 3,-10 0,-7 Q -3,-10 0,-13" fill="#7fbc6b" transform="rotate(40)"/>
        <path d="M 0,-13 Q 3,-10 0,-7 Q -3,-10 0,-13" fill="#7fbc6b" transform="rotate(80)"/>
        <path d="M 0,-13 Q 3,-10 0,-7 Q -3,-10 0,-13" fill="#7fbc6b" transform="rotate(120)"/>
        <path d="M 0,-13 Q 3,-10 0,-7 Q -3,-10 0,-13" fill="#7fbc6b" transform="rotate(160)"/>
        <path d="M 0,-13 Q 3,-10 0,-7 Q -3,-10 0,-13" fill="#7fbc6b" transform="rotate(200)"/>
        <path d="M 0,-13 Q 3,-10 0,-7 Q -3,-10 0,-13" fill="#7fbc6b" transform="rotate(240)"/>
        <path d="M 0,-13 Q 3,-10 0,-7 Q -3,-10 0,-13" fill="#7fbc6b" transform="rotate(280)"/>
        <path d="M 0,-13 Q 3,-10 0,-7 Q -3,-10 0,-13" fill="#7fbc6b" transform="rotate(320)"/>
    </g>

</svg>