<svg xmlns="http://www.w3.org/2000/svg" viewBox="0 0 50 50">

    <defs>
        <style type="text/css">
            :root {
                --flower-body: #ffb7c9;
            }
        </style>
    </defs>


    <!-- Background -->
    <rect width="50" height="50" fill="#f8f4e8"/>

    <!-- Pansy -->
    <g transform="translate(25, 39) scale(2.3)">
        <path d="M 0,0 C 1,-3 0,-8 0,-10" stroke="#447744" stroke-width="1" fill="none"/>
        <path d="M 0,-11 C 4,-15 4,-8 0,-7 C -4,-8 -4,-15 0,-11 Z" fill="#7d54b5"/>
        <path d="M 0,-7 C 4,-5 4,-12 0,-13 C -4,-12 -4,-5 0,-7 Z" fill="#5e3d99"/>
        <path d="M -5,-10 C -3,-5 0,-10 0,-11 C 0,-10 3,-5 5,-10 C 3,-15 -3,-15 -5,-10 Z" fill="#9676c9"/>
        <circle cx="0" cy="-10" r="2" fill="#ffed3a"/>
    </g>

</svg>