<svg xmlns="http://www.w3.org/2000/svg" viewBox="0 0 50 50">
    <!-- Background -->
    <rect width="50" height="50" fill="#f8f4e8"/>

    <!-- Wild rose -->
    <g transform="translate(25, 25)">
        <circle cx="0" cy="0" r="8" fill="#ffb7c9"/>
        <circle cx="0" cy="-0" r="3" fill="#ffed7a"/>
        <path d="M 0,-15 Q 1,-13 0,-10 Q -1,-13 0,-15" fill="#7fbc6b" transform="rotate(10)"/>
        <path d="M 0,-15 Q 1,-13 0,-10 Q -1,-13 0,-15" fill="#7fbc6b" transform="rotate(80)"/>
        <path d="M 0,-15 Q 1,-13 0,-10 Q -1,-13 0,-15" fill="#7fbc6b" transform="rotate(150)"/>
        <path d="M 0,-15 Q 1,-13 0,-10 Q -1,-13 0,-15" fill="#7fbc6b" transform="rotate(220)"/>
        <path d="M 0,-15 Q 1,-13 0,-10 Q -1,-13 0,-15" fill="#7fbc6b" transform="rotate(290)"/>
    </g>


</svg>