<svg xmlns="http://www.w3.org/2000/svg" viewBox="0 0 50 50">

    <defs>
        <style type="text/css">
            :root {
            --flower-body: #ffb7c9;
            --flower-heart: #ffed7a;
            --flower-soul: #7fbc6b;
            --flower-highlight: #87BC77 ;
            --flower-highlight-inside : #6FBC6B;
            }
        </style>
    </defs>

    <!-- Background -->
    <rect width="50" height="50" fill="#f8f4e8"/>

    <!-- Wild rose -->
    <g transform="translate(25, 25)">
        <circle cx="0" cy="0" r="8" fill="var(--flower-body)"/>
        <circle cx="0" cy="-0" r="3" fill="var(--flower-heart)"/>
        <g transform="rotate(0)">
            <path d="
                M 0,-15
                Q 3,-13 0,-10
                Q -3,-13 0,-15" fill="var(--flower-soul)"/>
            <path d="
                M 0,-14
                Q 1.5,-12 0,-11
                Q -1.5,-12 0,-14"
                  fill="var(--flower-highlight)" opacity="0.9"/>
            <path d="
                M 0,-14
                Q 0.8,-12 0,-11
                Q -.8,-12 0,-14"
                  fill="var(--flower-highlight-inside)" opacity="0.8"/>
        </g>
        <path d="M 0,-15 Q 1,-13 0,-10 Q -1,-13 0,-15" fill="var(--flower-soul)" transform="rotate(70)"/>
        <path d="M 0,-15 Q 1,-13 0,-10 Q -1,-13 0,-15" fill="var(--flower-soul)" transform="rotate(130)"/>
        <path d="M 0,-15 Q 1,-13 0,-10 Q -1,-13 0,-15" fill="var(--flower-soul)" transform="rotate(190)"/>
        <path d="M 0,-15 Q 1,-13 0,-10 Q -1,-13 0,-15" fill="var(--flower-soul)" transform="rotate(260)"/>
        <path d="M 0,-15 Q 1,-13 0,-10 Q -1,-13 0,-15" fill="var(--flower-soul)" transform="rotate(320)"/>
    </g>


</svg>